Coordinates
version=1
nRows=20
nColumns=34
inDegrees=yes

Units are S.I. units (second, meters, Newtons, ...)
If the header above contains a line with 'inDegrees', this indicates whether rotational values are in degrees (yes) or radians (no).

endheader
time	pelvis_tilt	pelvis_list	pelvis_rotation	pelvis_tx	pelvis_ty	pelvis_tz	hip_flexion_r	hip_adduction_r	hip_rotation_r	knee_angle_r	ankle_angle_r	subtalar_angle_r	mtp_angle_r	hip_flexion_l	hip_adduction_l	hip_rotation_l	knee_angle_l	ankle_angle_l	subtalar_angle_l	mtp_angle_l	lumbar_extension	lumbar_bending	lumbar_rotation	arm_flex_r	arm_add_r	arm_rot_r	elbow_flex_r	pro_sup_r	arm_flex_l	arm_add_l	arm_rot_l	elbow_flex_l	pro_sup_l
     10.26666670	    -13.13457932	     -1.38598933	      2.34144585	      0.61906068	      1.13918364	     -0.05295830	     16.00322168	     -5.40073523	    -27.71169403	      7.29358624	     -3.64014810	    -16.85218310	      0.00000000	     20.75830374	     -7.29295818	    -11.30780644	     11.69455141	      0.13882118	     -8.20858944	      0.00000000	     -5.03756501	      0.82282828	     -2.24360408	     67.24402662	     -8.41777070	     30.97588281	     65.59042850	     64.93328564	     71.19623924	     -1.01899683	     32.89057199	     53.45471515	     25.96299712
     10.28333330	    -11.78569109	     -1.42885034	      1.93538405	      0.63235108	      1.13996401	     -0.05547243	     13.76282604	     -4.85798129	    -27.69130171	      5.79560193	     -4.37496982	    -16.70301439	      0.00000000	     18.46903372	     -7.26644448	    -10.89068457	     10.65512889	     -0.00501066	     -8.78283521	      0.00000000	     -5.24003584	      0.92515682	     -1.90817723	     65.74751184	     -8.99844230	     30.89949002	     66.14525699	     65.16787378	     69.56031464	     -0.92492233	     32.69431216	     54.01313338	     26.11042305
     10.30000000	    -10.45277571	     -1.53166532	      1.53183639	      0.64790414	      1.14210699	     -0.05354763	     11.40151668	     -4.28001121	    -27.40141526	      4.67298441	     -4.81039548	    -16.56973121	      0.00000000	     15.99260820	     -7.36668754	    -10.64615217	      9.69811627	      0.19477369	     -9.29865490	      0.00000000	     -5.03487050	      0.95032989	     -1.72779453	     63.45286638	     -9.39179931	     31.09763936	     67.66780928	     65.61214881	     67.27557827	     -1.16618081	     32.55111680	     55.01942398	     26.39725501
     10.31666670	     -9.68118305	     -1.61275182	      1.15913738	      0.64022197	      1.14486699	     -0.05065928	     10.09739910	     -3.84211089	    -26.98457138	      3.86805924	     -4.76282295	    -16.60297302	      0.00000000	     15.01718302	     -7.56322700	    -10.19929269	      9.90746435	      0.59140558	     -9.61127971	      0.00000000	     -4.52900238	      0.69144827	     -1.72164791	     61.32450537	     -9.33395888	     31.34593856	     67.46249105	     65.70034371	     65.62462296	     -1.53554746	     32.68808114	     54.82627668	     26.44736770
     10.33333330	     -8.28926600	     -1.48289343	      1.39059261	      0.66600367	      1.14850326	     -0.05431828	      7.43991640	     -3.68574451	    -27.10277671	      2.77831818	     -5.47302828	    -16.64558209	      0.00000000	     12.96466882	     -7.46137124	    -10.12218645	      9.96867965	      0.23148740	     -9.79382451	      0.00000000	     -4.08632432	      0.38619843	     -2.50775042	     57.66435668	     -8.76841710	     30.24537270	     67.91879284	     65.97277702	     62.79672606	     -2.13920072	     32.40079815	     55.13716686	     26.67265459
     10.35000000	     -7.21338409	     -1.36405307	      1.35374640	      0.67376112	      1.15221801	     -0.05451808	      5.33491032	     -3.60212706	    -26.90962447	      2.10563669	     -5.16337529	    -16.25135947	      0.00000000	     11.14081279	     -7.39696676	     -9.95471037	      9.95328951	      0.81999775	     -9.47639869	      0.00000000	     -3.23121658	      0.00724498	     -2.99219170	     53.40009196	     -7.85102129	     28.05568746	     68.52760158	     66.44993183	     59.52028306	     -2.80425216	     31.77095366	     56.34824653	     27.12902390
     10.36666670	     -6.24186023	     -1.28769712	      1.20365176	      0.67329882	      1.14802591	     -0.05444761	      3.53052200	     -3.45972680	    -26.45790965	      1.33617810	     -5.11497643	    -16.41452652	      0.00000000	      9.28933738	     -7.36231508	    -10.21216830	      9.43417083	      1.30715985	     -9.37090361	      0.00000000	     -2.62473191	     -0.22820362	     -3.17691319	     50.54029952	     -7.27359300	     26.75481300	     68.71763978	     66.98275305	     57.04286142	     -3.13726934	     31.47729639	     56.81961253	     27.60831583
     10.38333330	     -5.36136224	     -1.28293920	      1.04094234	      0.68218248	      1.14796874	     -0.05034111	      1.85416525	     -3.19849977	    -25.82926306	      0.64929653	     -5.17534280	    -16.71114690	      0.00000000	      7.18093946	     -7.35098980	    -10.45326696	      8.25431030	      1.67851738	     -9.21511229	      0.00000000	     -1.95895109	     -0.49061737	     -3.36220964	     48.07141314	     -6.45894803	     25.82688232	     68.30630697	     67.46290462	     54.78588259	     -3.51553516	     31.27152085	     57.26349659	     28.02386813
     10.40000000	     -4.66783430	     -1.35877616	      0.67756081	      0.68737977	      1.14471503	     -0.05251712	      0.47622432	     -2.97373410	    -25.44845675	      0.08275329	     -5.35662880	    -17.08245208	      0.00000000	      5.37387438	     -7.37811794	    -10.71923233	      7.16862531	      2.18066423	     -9.21161462	      0.00000000	     -1.48066404	     -0.50267525	     -3.36675467	     46.40087769	     -5.96891344	     24.97721216	     67.97715608	     67.84561346	     53.00532398	     -3.75379216	     30.77801827	     57.33504065	     28.30754315
     10.41666670	     -4.12918233	     -1.44588482	      0.29350102	      0.69033606	      1.14573050	     -0.05501079	     -0.42917814	     -2.92081818	    -24.81972830	      0.00000000	     -5.22769881	    -17.38678915	      0.00000000	      3.77610680	     -7.32915310	    -10.88505444	      6.02791910	      2.85946006	     -8.94151025	      0.00000000	     -1.04646310	     -0.50905816	     -3.48310437	     44.43542985	     -5.45852548	     24.21998739	     67.96634490	     68.27196580	     51.33188379	     -4.00684033	     29.84739461	     57.72827247	     28.57445474
     10.43333330	     -3.46698070	     -1.49736253	     -0.06965515	      0.69495507	      1.14470863	     -0.05722701	     -1.41731369	     -2.96401198	    -24.33244453	      0.00000000	     -5.14220332	    -17.70011003	      0.00000000	      2.20628563	     -7.17169879	    -11.07505257	      5.11188561	      3.22554906	     -9.09683488	      0.00000000	     -0.80157452	     -0.46826695	     -3.73811206	     42.52983856	     -4.89658140	     23.85318031	     67.66415003	     68.67021441	     49.76328668	     -4.29078794	     28.89853564	     58.01419840	     28.79481048
     10.45000000	     -3.04539065	     -1.46994734	     -0.40257292	      0.69355241	      1.14170671	     -0.05693675	     -1.98274675	     -3.09032533	    -23.97564626	      0.00000000	     -4.98383362	    -17.94415739	      0.00000000	      1.14476998	     -6.92704195	    -11.20104090	      4.41400214	      3.36864418	     -9.36321866	      0.00000000	     -0.37017250	     -0.67621817	     -4.25866269	     40.90357751	     -4.44085104	     24.05052761	     67.85389151	     68.82501574	     48.60959194	     -4.73711635	     28.52797544	     57.87270112	     28.84221039
     10.46666670	     -2.41650166	     -1.52197972	     -0.64541911	      0.69838178	      1.13914648	     -0.05918397	     -2.76577820	     -3.12293107	    -23.39859577	      0.00000000	     -4.98557789	    -18.45058218	      0.00000000	     -0.06369142	     -6.75608475	    -11.32851252	      3.79083152	      3.47428840	     -9.81134385	      0.00000000	     -0.34023138	     -0.53689754	     -4.46907946	     39.50325019	     -4.21977246	     23.59446076	     68.23572993	     69.11327988	     47.30110647	     -4.92294440	     27.52238120	     58.60381973	     28.93311227
     10.48333330	     -2.00953052	     -1.57747553	     -0.68595139	      0.69709770	      1.14232080	     -0.05910040	     -3.23994987	     -3.15193422	    -23.04794390	      0.00000000	     -4.75125783	    -18.51016908	      0.00000000	     -0.80511351	     -6.65281886	    -11.12240617	      3.41668579	      3.61837017	     -9.87244968	      0.00000000	     -0.00402384	     -0.50672963	     -4.69586127	     38.09850430	     -4.20222153	     23.83187306	     68.18581293	     69.18465718	     46.25407036	     -4.93210531	     27.67415410	     58.66941171	     28.95232839
     10.50000000	     -1.54627618	     -1.61556425	     -0.69903636	      0.70225721	      1.14512915	     -0.06164536	     -3.86403624	     -3.19684674	    -22.87509782	      0.00000000	     -4.73366235	    -18.54434321	      0.00000000	     -1.65601409	     -6.52432591	    -11.04654052	      2.99371677	      3.75314225	     -9.94101398	      0.00000000	      0.28966374	     -0.46209681	     -4.78662467	     36.72757354	     -4.36068371	     23.98738550	     67.99642797	     69.25388212	     45.06145723	     -4.97832771	     27.77812914	     58.73390434	     28.95902507
     10.51666670	     -1.13737616	     -1.64127624	     -0.74654660	      0.70592252	      1.14642860	     -0.06385918	     -4.40486518	     -3.24454719	    -22.77512663	      0.00000000	     -4.83279886	    -18.55176184	      0.00000000	     -2.55742263	     -6.37921269	    -11.00006578	      2.51746521	      3.75114546	     -9.90725263	      0.00000000	      0.54734272	     -0.38602298	     -4.73607306	     35.75852337	     -4.70194740	     23.99934887	     67.66062702	     69.32509850	     44.07163416	     -4.86971553	     27.80565145	     58.89267501	     28.96714216
     10.53333330	     -0.75481103	     -1.67492691	     -0.67133514	      0.70554544	      1.14638339	     -0.06824424	     -4.89385462	     -3.33310512	    -22.68030808	      0.00000000	     -4.97789123	    -18.53176000	      0.00000000	     -3.22293140	     -6.23181115	    -10.94863975	      2.22516930	      3.74760097	     -9.87802599	      0.00000000	      0.76833879	     -0.23354154	     -4.97195850	     34.95406567	     -5.01634937	     24.05210760	     67.40951629	     69.37126058	     43.25741960	     -4.68440474	     27.94301071	     58.94622938	     28.97495531
     10.55000000	     -0.26011219	     -1.62463093	     -0.71124814	      0.70434115	      1.14745617	     -0.06799480	     -5.41045164	     -3.49888881	    -22.42961487	      0.00000000	     -5.04092783	    -18.62942442	      0.00000000	     -4.17054843	     -5.94595642	    -10.96635901	      1.52035117	      3.69958853	     -9.76719445	      0.00000000	      0.52242441	     -0.20553066	     -4.87595674	     34.85333853	     -5.25547659	     24.08895037	     66.98099583	     69.61633989	     42.66417206	     -4.38171308	     28.12614843	     59.37050986	     29.03412945
     10.56666670	      0.12362600	     -1.73265832	     -0.69383405	      0.70463556	      1.14370167	     -0.06809944	     -5.81857486	     -3.45902083	    -22.24615234	      0.00000000	     -4.96480001	    -18.93110456	      0.00000000	     -4.78752070	     -5.88358140	    -10.60285765	      1.16034359	      4.35780779	     -9.53800744	      0.00000000	      0.25920711	      0.13294344	     -4.83926444	     35.40069393	     -5.53563874	     24.38524140	     66.45688241	     69.96396618	     42.67883068	     -4.29796832	     28.87382292	     59.66174407	     29.14443335
     10.58333330	      0.33568701	     -1.73839008	     -0.90112396	      0.70354032	      1.14684696	     -0.06768488	     -5.95882720	     -3.52550556	    -21.81917768	      0.00000000	     -4.76124937	    -19.04809980	      0.00000000	     -5.28409589	     -5.70664532	    -10.46260530	      0.58647017	      4.87028901	     -9.26170640	      0.00000000	     -0.03324698	      0.24300458	     -4.85912151	     36.12634664	     -5.56349491	     24.74931214	     65.81240413	     70.33363215	     43.03585917	     -4.44334191	     29.43789441	     59.30685060	     29.20214539
